<svg xmlns="http://www.w3.org/2000/svg" xmlns:xlink="http://www.w3.org/1999/xlink" width="640" height="313.83957" viewBox="0 0 640 313.83957"><defs><style>.cls-1{fill:#bfc2c7;}.cls-2{fill:#1c1c1c;}.cls-3{fill:url(#linear-gradient);}.cls-4{fill:#f2f2f2;}.cls-5{fill:#171717;}.cls-6{fill:#2d2d2d;}.cls-7{fill:none;stroke:#171717;stroke-miterlimit:10;stroke-width:1.36898px;}.cls-8{fill:#d1d1d1;}.cls-9{fill:#b5b5b5;}.cls-10{fill:#e2e2e2;}.cls-11{fill:#c1c1c1;}</style><linearGradient id="linear-gradient" x1="254.33021" y1="-76.83021" x2="566.11631" y2="-76.83021" gradientTransform="matrix(0, -1, -1, 0, 283.16979, 612.16979)" gradientUnits="userSpaceOnUse"><stop offset="0" stop-color="#c9c9c9"/><stop offset="1" stop-color="#7d7d7d"/></linearGradient></defs><title>android</title><g id="Android"><g id="Layer_4" data-name="Layer 4"><polygon class="cls-1" points="214.222 6.845 211.166 0 254.973 0 250.898 6.845 214.222 6.845"/><polygon class="cls-1" points="280.403 6.845 274.481 0 359.358 0 351.463 6.845 280.403 6.845"/></g><g id="Layer_2" data-name="Layer 2"><path class="cls-2" d="M677.94652,85.06952v233.754A37.07123,37.07123,0,0,1,640.984,355.7861H79.016a37.07123,37.07123,0,0,1-36.96256-36.96257V85.06952A37.07123,37.07123,0,0,1,79.016,48.107H640.984A37.07122,37.07122,0,0,1,677.94652,85.06952Z" transform="translate(-40 -44)"/><path class="cls-3" d="M42.05348,85.06952A37.07123,37.07123,0,0,1,79.016,48.107H640.984a37.07122,37.07122,0,0,1,36.96256,36.96257v233.754A37.07123,37.07123,0,0,1,640.984,355.7861H79.016a37.07123,37.07123,0,0,1-36.96256-36.96257V85.06952m-2.05348,0v233.754a39.06015,39.06015,0,0,0,39.016,39.016H640.984A39.06015,39.06015,0,0,0,680,318.82353V85.06952a39.06015,39.06015,0,0,0-39.016-39.016H79.016A39.06015,39.06015,0,0,0,40,85.06952Z" transform="translate(-40 -44)"/><rect class="cls-4" x="67.08021" y="14.37433" width="511.17451" height="286.11765"/></g><g id="Layer_3" data-name="Layer 3"><path class="cls-5" d="M75.59358,152.83422V254.139a4.119,4.119,0,0,1-4.10695,4.107h0a4.119,4.119,0,0,1-4.107-4.107V152.83422a4.119,4.119,0,0,1,4.107-4.10695h0A4.119,4.119,0,0,1,75.59358,152.83422Z" transform="translate(-40 -44)"/><circle class="cls-6" cx="31.48663" cy="251.20856" r="4.10695"/><path class="cls-7" d="M655.35829,152.83422V254.139a4.119,4.119,0,0,1-4.10695,4.107h0a4.119,4.119,0,0,1-4.10695-4.107V152.83422a4.119,4.119,0,0,1,4.10695-4.10695h0A4.119,4.119,0,0,1,655.35829,152.83422Z" transform="translate(-40 -44)"/></g></g><g id="Logo"><polygon class="cls-8" points="272 124 272 108 288 108 320 140 320 156 304 156 272 124"/><polygon class="cls-9" points="336 156 320 156 320 140 352 108 368 108 368 124 336 156"/><polygon class="cls-10" points="320 172 320 156 336 156 368 188 368 204 352 204 320 172"/><polygon class="cls-11" points="288 204 272 204 272 188 304 156 320 156 320 172 288 204"/></g></svg>