<?xml version="1.0" encoding="utf-8"?>
<!-- Generator: Adobe Illustrator 23.0.3, SVG Export Plug-In . SVG Version: 6.00 Build 0)  -->
<svg version="1.1" id="Layer_1" xmlns="http://www.w3.org/2000/svg" xmlns:xlink="http://www.w3.org/1999/xlink" x="0px" y="0px"
	 viewBox="0 0 640 313.8" style="enable-background:new 0 0 640 313.8;" xml:space="preserve">
<style type="text/css">
	.st0{fill:#BFC2C7;}
	.st1{fill:#1C1C1C;}
	.st2{fill:url(#SVGID_1_);}
	.st3{fill:#171717;}
	.st4{fill:#262728;}
	.st5{fill:#1F2021;}
	.st6{fill:#1B1C1C;}
	.st7{fill:#222323;}
	.st8{fill:#1D1E1E;}
</style>
<title>android</title>
<g id="Android">
	<g id="Layer_4">
		<polygon class="st0" points="214.2,6.8 211.2,0 255,0 250.9,6.8 		"/>
		<polygon class="st0" points="280.4,6.8 274.5,0 359.4,0 351.5,6.8 		"/>
	</g>
	<g>
		<path class="st1" d="M637.9,41.1v233.8c-0.1,20.4-16.6,36.9-37,37H39c-20.4-0.1-36.9-16.6-37-37V41.1c0.1-20.4,16.6-36.9,37-37
			h562C621.4,4.2,637.9,20.7,637.9,41.1z"/>
		
			<linearGradient id="SVGID_1_" gradientUnits="userSpaceOnUse" x1="-766.6697" y1="1413.8302" x2="-454.8837" y2="1413.8302" gradientTransform="matrix(0 -1 1 0 -1093.8302 -452.8302)">
			<stop  offset="0" style="stop-color:#C9C9C9"/>
			<stop  offset="1" style="stop-color:#7D7D7D"/>
		</linearGradient>
		<path class="st2" d="M2.1,41.1c0.1-20.4,16.6-36.9,37-37h562c20.4,0.1,36.9,16.6,37,37v233.8c-0.1,20.4-16.6,36.9-37,37H39
			c-20.4-0.1-36.9-16.6-37-37L2.1,41.1 M0,41.1v233.8c0,21.5,17.5,39,39,39h562c21.5,0,39-17.5,39-39V41.1c0-21.5-17.5-39-39-39H39
			C17.5,2.1,0,19.5,0,41.1L0,41.1z"/>
	</g>
	<g id="Layer_3">
		<path class="st3" d="M14.6,108.8v101.3c0,2.3-1.8,4.1-4.1,4.1l0,0c-2.3,0-4.1-1.8-4.1-4.1V108.8c0-2.3,1.8-4.1,4.1-4.1l0,0
			C12.8,104.7,14.6,106.6,14.6,108.8z"/>
	</g>
</g>
<image style="display:none;overflow:visible;" width="514" height="258" xlink:href="582796F0.jpg"  transform="matrix(1.2421 0 0 1.2421 3.814697e-05 -0.4168)">
</image>
<path class="st4" d="M632,42.5v230.9c-0.1,20.1-16.4,36.4-36.5,36.5h-555C20.4,309.8,4.1,293.5,4,273.4V42.5
	C4.1,22.4,20.4,6.1,40.5,6h555C615.6,6.1,631.9,22.4,632,42.5z"/>
<g id="Logo">
	<polygon class="st5" points="272,124 272,108 288,108 320,140 320,156 304,156 	"/>
	<polygon class="st6" points="336,156 320,156 320,140 352,108 368,108 368,124 	"/>
	<polygon class="st7" points="320,172 320,156 336,156 368,188 368,204 352,204 	"/>
	<polygon class="st8" points="288,204 272,204 272,188 304,156 320,156 320,172 	"/>
</g>
</svg>
