<svg xmlns="http://www.w3.org/2000/svg" xmlns:xlink="http://www.w3.org/1999/xlink" width="640" height="317.15154" viewBox="0 0 640 317.15154"><defs><style>.cls-1{fill:#bfc2c7;}.cls-2{fill:#070707;}.cls-3{fill:url(#linear-gradient);}.cls-4{fill:#2e2f2f;}.cls-5{fill:#0071bc;stroke:#2e2f2f;stroke-width:2.15018px;}.cls-5,.cls-6{stroke-miterlimit:10;}.cls-6{fill:none;stroke-width:3.22527px;stroke:url(#linear-gradient-2);}.cls-7{fill:#f2f2f2;}.cls-8{fill:#d1d1d1;}.cls-9{fill:#b5b5b5;}.cls-10{fill:#e2e2e2;}.cls-11{fill:#c1c1c1;}</style><linearGradient id="linear-gradient" x1="289.18688" y1="42.49949" x2="596.66261" y2="42.49949" gradientTransform="matrix(0, -1, -1, 0, 404.49949, 644.50051)" gradientUnits="userSpaceOnUse"><stop offset="0" stop-color="#adacac"/><stop offset="1" stop-color="#605e5e"/></linearGradient><linearGradient id="linear-gradient-2" x1="417.12259" y1="-238.09844" x2="465.50163" y2="-238.09844" gradientTransform="matrix(0, -1, -1, 0, 362.49949, 601.50051)" gradientUnits="userSpaceOnUse"><stop offset="0.1333" stop-color="#727070"/><stop offset="0.6205" stop-color="#0d0d0d"/><stop offset="1" stop-color="#727070"/></linearGradient></defs><title>ios</title><g id="iOS"><g id="Layer_2" data-name="Layer 2"><polygon class="cls-1" points="138.309 10.751 135.084 0 181.313 0 177.012 10.751 138.309 10.751"/><polygon class="cls-1" points="197.439 306.401 194.214 317.152 240.443 317.152 236.142 306.401 197.439 306.401"/><polygon class="cls-1" points="139.384 306.401 136.159 317.152 182.388 317.152 178.088 306.401 139.384 306.401"/><polygon class="cls-1" points="78.829 306.401 77.029 317.152 102.831 317.152 100.431 306.401 78.829 306.401"/><path class="cls-2" d="M678.77361,91.91659V311.23494a40.9735,40.9735,0,0,1-40.85341,40.85342H86.07869a40.97353,40.97353,0,0,1-40.85342-40.85342V91.91659A40.97353,40.97353,0,0,1,86.07869,51.06317H637.9202A40.97351,40.97351,0,0,1,678.77361,91.91659Z" transform="translate(-42 -43)"/><path class="cls-3" d="M45.22527,91.91659A40.97353,40.97353,0,0,1,86.07869,51.06317H637.92131a40.97351,40.97351,0,0,1,40.85342,40.85342V311.23494a40.97351,40.97351,0,0,1-40.85342,40.85342H86.07869a40.97353,40.97353,0,0,1-40.85342-40.85342V91.91659m-3.22527,0V311.23494a44.12927,44.12927,0,0,0,44.07869,44.07869H637.92131A44.12928,44.12928,0,0,0,682,311.23494V91.91659A44.12928,44.12928,0,0,0,637.92131,47.8379H86.07869A44.12858,44.12858,0,0,0,42,91.91659Z" transform="translate(-42 -43)"/></g><g id="Layer_3" data-name="Layer 3"><path class="cls-4" d="M82.47606,177.92379v47.304a2.1565,2.1565,0,0,1-2.15018,2.15018h0a2.1565,2.1565,0,0,1-2.15018-2.15018v-47.304a2.15649,2.15649,0,0,1,2.15018-2.15018h0A2.15649,2.15649,0,0,1,82.47606,177.92379Z" transform="translate(-42 -43)"/><circle class="cls-5" cx="38.32588" cy="209.64254" r="4.30036"/><circle class="cls-6" cx="600.59793" cy="160.1884" r="22.57689"/><rect class="cls-7" x="74.87894" y="20.42671" width="488.09084" height="275.22303"/></g></g><g id="Logo"><polygon class="cls-8" points="270 125 270 109 286 109 318 141 318 157 302 157 270 125"/><polygon class="cls-9" points="334 157 318 157 318 141 350 109 366 109 366 125 334 157"/><polygon class="cls-10" points="318 173 318 157 334 157 366 189 366 205 350 205 318 173"/><polygon class="cls-11" points="286 205 270 205 270 189 302 157 318 157 318 173 286 205"/></g></svg>