<?xml version="1.0" encoding="utf-8"?>
<!-- Generator: Adobe Illustrator 23.0.3, SVG Export Plug-In . SVG Version: 6.00 Build 0)  -->
<svg version="1.1" id="Layer_1" xmlns="http://www.w3.org/2000/svg" xmlns:xlink="http://www.w3.org/1999/xlink" x="0px" y="0px"
	 viewBox="0 0 640 360" style="enable-background:new 0 0 640 360;" xml:space="preserve">
<style type="text/css">
	.st0{fill:#303030;}
	.st1{enable-background:new    ;}
	.st2{fill:#272727;}
	.st3{fill:#222222;}
	.st4{fill:#2B2B2B;}
	.st5{fill:#242424;}
	.st6{fill:#3D3D3D;}
	.st7{fill:#474642;}
	.st8{fill:#2B2929;}
	.st9{fill:#E95420;stroke:#E95420;stroke-miterlimit:10;}
	.st10{fill:none;stroke:#FFFFFF;stroke-miterlimit:10;}
</style>
<title>linux</title>
<rect y="22.9" class="st0" width="640" height="337.1"/>
<g id="Logo" class="st1">
	<polygon class="st2" points="272,148 272,132 288,132 320,164 320,180 304,180 	"/>
	<polygon class="st3" points="336,180 320,180 320,164 352,132 368,132 368,148 	"/>
	<polygon class="st4" points="320,196 320,180 336,180 368,212 368,228 352,228 	"/>
	<polygon class="st5" points="288,228 272,228 272,212 304,180 320,180 320,196 	"/>
</g>
<g id="Linux">
	<g id="Topbar">
		<path class="st6" d="M7,0h626c3.9,0,7,3.1,7,7l0,0v21l0,0H0l0,0V7C0,3.1,3.1,0,7,0z"/>
		<path class="st7" d="M7,1h626c3.9,0,7,3.1,7,7v21l0,0H0l0,0V8C0,4.1,3.1,1,7,1z"/>
		<path class="st8" d="M7,2h626c3.9,0,7,3.1,7,7v21l0,0H0l0,0V9C0,5.1,3.1,2,7,2z"/>
	</g>
	<g id="Buttons">
		<circle class="st9" cx="624" cy="15" r="8"/>
		<rect x="600.5" y="11.5" class="st10" width="7" height="7"/>
		<line class="st10" x1="627" y1="12" x2="621" y2="18"/>
		<line class="st10" x1="621" y1="12" x2="627" y2="18"/>
		<line class="st10" x1="580" y1="15.5" x2="588" y2="15.5"/>
	</g>
</g>
</svg>
