<svg xmlns="http://www.w3.org/2000/svg" xmlns:xlink="http://www.w3.org/1999/xlink" width="640" height="360" viewBox="0 0 640 360"><defs><style>.cls-1{fill:#f2f2f2;}.cls-2{fill:#3f3e3b;}.cls-3{fill:#474642;}.cls-4{fill:url(#linear-gradient);}.cls-5{fill:#5f5e58;stroke:#393835;}.cls-5,.cls-6{stroke-miterlimit:10;}.cls-6{fill:none;stroke:#3d3c37;}.cls-7{fill:#d1d1d1;}.cls-8{fill:#b5b5b5;}.cls-9{fill:#e2e2e2;}.cls-10{fill:#c1c1c1;}</style><linearGradient id="linear-gradient" x1="320" y1="30" x2="320" y2="2" gradientUnits="userSpaceOnUse"><stop offset="0" stop-color="#3a3935"/><stop offset="1" stop-color="#41403c"/></linearGradient></defs><title>linux</title><g id="Linux"><rect id="White_Background" data-name="White Background" class="cls-1" y="12" width="640" height="348"/><g id="Topbar"><path class="cls-2" d="M7,0H633a7,7,0,0,1,7,7V28a0,0,0,0,1,0,0H0a0,0,0,0,1,0,0V7A7,7,0,0,1,7,0Z"/><path class="cls-3" d="M7,1H633a7,7,0,0,1,7,7V29a0,0,0,0,1,0,0H0a0,0,0,0,1,0,0V8A7,7,0,0,1,7,1Z"/><path class="cls-4" d="M7,2H633a7,7,0,0,1,7,7V30a0,0,0,0,1,0,0H0a0,0,0,0,1,0,0V9A7,7,0,0,1,7,2Z"/></g><g id="Buttons"><circle class="cls-5" cx="624" cy="15" r="8"/><circle class="cls-5" cx="604" cy="15" r="8"/><circle class="cls-5" cx="584" cy="15" r="8"/><rect class="cls-6" x="600.5" y="11.5" width="7" height="7"/><line class="cls-6" x1="627" y1="12" x2="621" y2="18"/><line class="cls-6" x1="621" y1="12" x2="627" y2="18"/><line class="cls-6" x1="580" y1="15.5" x2="588" y2="15.5"/></g></g><g id="Logo"><polygon class="cls-7" points="272 148 272 132 288 132 320 164 320 180 304 180 272 148"/><polygon class="cls-8" points="336 180 320 180 320 164 352 132 368 132 368 148 336 180"/><polygon class="cls-9" points="320 196 320 180 336 180 368 212 368 228 352 228 320 196"/><polygon class="cls-10" points="288 228 272 228 272 212 304 180 320 180 320 196 288 228"/></g></svg>