<svg xmlns="http://www.w3.org/2000/svg" xmlns:xlink="http://www.w3.org/1999/xlink" width="640" height="360" viewBox="0 0 640 360"><defs><style>.cls-1{fill:#f2f2f2;}.cls-2{fill:#f1f1f1;}.cls-3{fill:url(#linear-gradient);}.cls-4{fill:#ff554e;stroke:#dc3e39;}.cls-4,.cls-5,.cls-6{stroke-miterlimit:10;stroke-width:0.91667px;}.cls-5{fill:#25c73a;stroke:#13a227;}.cls-6{fill:#ffb827;stroke:#db9617;}.cls-7{fill:#d1d1d1;}.cls-8{fill:#b5b5b5;}.cls-9{fill:#e2e2e2;}.cls-10{fill:#c1c1c1;}</style><linearGradient id="linear-gradient" x1="360" y1="42.92624" x2="360" y2="21" gradientUnits="userSpaceOnUse"><stop offset="0" stop-color="#cacaca"/><stop offset="1" stop-color="#e0e0e0"/></linearGradient></defs><title>macos</title><g id="MacOS"><rect id="White_Background" data-name="White Background" class="cls-1" y="12" width="640" height="348" rx="5" ry="5"/><path id="Topbar_Highlight" data-name="Topbar Highlight" class="cls-2" d="M680,41.92624H40V25a5.0147,5.0147,0,0,1,5-5H675a5.0147,5.0147,0,0,1,5,5Z" transform="translate(-40 -20)"/><path id="Topbar_Gradient" data-name="Topbar Gradient" class="cls-3" d="M680,42.92624H40V26a5.0147,5.0147,0,0,1,5-5H675a5.0147,5.0147,0,0,1,5,5Z" transform="translate(-40 -20)"/><g id="Close_Min_Max" data-name="Close Min Max"><circle class="cls-4" cx="14" cy="11" r="5.5"/><circle class="cls-5" cx="54" cy="11" r="5.5"/><circle class="cls-6" cx="34" cy="11" r="5.5"/></g></g><g id="Logo"><polygon class="cls-7" points="272 148 272 132 288 132 320 164 320 180 304 180 272 148"/><polygon class="cls-8" points="336 180 320 180 320 164 352 132 368 132 368 148 336 180"/><polygon class="cls-9" points="320 196 320 180 336 180 368 212 368 228 352 228 320 196"/><polygon class="cls-10" points="288 228 272 228 272 212 304 180 320 180 320 196 288 228"/></g></svg>