<svg xmlns="http://www.w3.org/2000/svg" width="640" height="360" viewBox="0 0 640 360"><defs><style>.cls-1,.cls-4{fill:#f2f2f2;}.cls-2{fill:#b6b4b6;}.cls-3{fill:#d3d3d3;}.cls-4{stroke:#b6b4b6;}.cls-4,.cls-5{stroke-miterlimit:10;}.cls-5{fill:#fff;stroke:#b5b5b5;stroke-width:0.98374px;}.cls-6{fill:#d1d1d1;}.cls-7{fill:#b5b5b5;}.cls-8{fill:#e2e2e2;}.cls-9{fill:#c1c1c1;}</style></defs><title>webassembly</title><g id="WebAssembly"><rect class="cls-1" width="640" height="360" rx="3" ry="3"/><rect class="cls-2" y="41" width="640" height="40"/><path class="cls-3" d="M257.95434,53.31238,251.30257,38.835A2,2,0,0,1,253.11992,36h23.644a2,2,0,0,1,1.78886,1.10557l7.028,14.056a2,2,0,0,1-1.75377,2.89412l-24.02023.4214A2,2,0,0,1,257.95434,53.31238Z" transform="translate(-40 -20)"/><rect class="cls-1" y="40" width="640" height="40"/><polyline class="cls-4" points="0 39 6 39 20 7.5 198 7 213.5 39 640 39"/><rect class="cls-5" x="151.5" y="43.5" width="360" height="32" rx="2" ry="2"/></g><g id="Logo"><polygon class="cls-6" points="272 148 272 132 288 132 320 164 320 180 304 180 272 148"/><polygon class="cls-7" points="336 180 320 180 320 164 352 132 368 132 368 148 336 180"/><polygon class="cls-8" points="320 196 320 180 336 180 368 212 368 228 352 228 320 196"/><polygon class="cls-9" points="288 228 272 228 272 212 304 180 320 180 320 196 288 228"/></g></svg>