<svg xmlns="http://www.w3.org/2000/svg" width="640" height="360" viewBox="0 0 640 360"><defs><style>.cls-1{fill:#f2f2f2;}.cls-2{fill:#26a6f2;}.cls-3{fill:none;stroke:#141414;stroke-miterlimit:10;}.cls-4{fill:#d1d1d1;}.cls-5{fill:#b5b5b5;}.cls-6{fill:#e2e2e2;}.cls-7{fill:#c1c1c1;}</style></defs><title>windows</title><g id="Windows"><rect id="White_Background" data-name="White Background" class="cls-1" y="12" width="640" height="348"/><g id="titlebar"><rect class="cls-2" width="640" height="30.7"/></g><g id="outline"><path class="cls-2" d="M679,21V379H41V21H679m1-1H40V380H680V20Z" transform="translate(-40 -20)"/></g><g id="titlebar-buttons"><line id="minimize" class="cls-3" x1="519.79999" y1="15.3" x2="529.79999" y2="15.3"/><rect id="maximize" class="cls-3" x="565.5" y="10.3" width="9" height="9"/><g id="exit"><line class="cls-3" x1="611.5" y1="10.5" x2="620.5" y2="19.3"/><line class="cls-3" x1="620.5" y1="10.5" x2="611.5" y2="19.5"/></g></g></g><g id="Logo"><polygon class="cls-4" points="272 148 272 132 288 132 320 164 320 180 304 180 272 148"/><polygon class="cls-5" points="336 180 320 180 320 164 352 132 368 132 368 148 336 180"/><polygon class="cls-6" points="320 196 320 180 336 180 368 212 368 228 352 228 320 196"/><polygon class="cls-7" points="288 228 272 228 272 212 304 180 320 180 320 196 288 228"/></g></svg>